<?xml version="1.0" encoding="UTF-8"?>
<svg id="Layer_1" data-name="Layer 1" xmlns="http://www.w3.org/2000/svg" viewBox="0 0 595.28 255.12">
  <defs>
    <style>
      

      .cls-1 {
        fill: #fff;
      }
    </style>
  </defs>
  <g>
    <path class="cls-1" d="M169.04,175.38h8.16v1.49h-3.24v10.53h3.24v1.48h-8.16v-1.48h3.16v-10.53h-3.16v-1.49Z"/>
    <path class="cls-1" d="M192.14,188.88h-1.74l-5.24-10.09-.03,10.09h-1.74v-13.51h1.74l5.24,10.08,.03-10.08h1.74v13.51Z"/>
    <path class="cls-1" d="M207.42,176.84h-4.17v12.04h-1.67v-12.04h-4.17v-1.47h10.02v1.47Z"/>
    <path class="cls-1" d="M220.37,182.64h-5.64v4.79h6.58v1.46h-8.29v-13.51h8.21v1.47h-6.49v4.34h5.64v1.46Z"/>
    <path class="cls-1" d="M229.51,187.43h6.61v1.46h-8.32v-13.51h1.72v12.05Z"/>
    <path class="cls-1" d="M244.14,187.43h6.61v1.46h-8.32v-13.51h1.72v12.05Z"/>
    <path class="cls-1" d="M256.84,175.38h8.16v1.49h-3.24v10.53h3.24v1.48h-8.16v-1.48h3.16v-10.53h-3.16v-1.49Z"/>
    <path class="cls-1" d="M280.21,187.11c-.57,.67-1.22,1.16-1.96,1.48-.74,.32-1.54,.48-2.42,.47-.56,0-1.07-.09-1.54-.25-.47-.16-.89-.39-1.26-.68-.37-.29-.7-.63-.97-1.02s-.51-.81-.7-1.27c-.19-.45-.33-.93-.43-1.43-.1-.5-.15-1-.15-1.51v-1.57c0-.5,.05-1,.13-1.5,.08-.5,.21-.98,.38-1.43s.39-.88,.65-1.28,.57-.73,.93-1.02c.36-.29,.77-.51,1.23-.68,.46-.17,.97-.25,1.54-.25,.63,0,1.21,.1,1.74,.29,.53,.2,1,.47,1.39,.83,.4,.36,.71,.8,.96,1.31,.24,.51,.39,1.08,.45,1.71h-1.7c-.07-.39-.17-.75-.31-1.08-.14-.33-.33-.61-.56-.85-.23-.23-.51-.42-.83-.55-.32-.13-.7-.2-1.12-.2s-.77,.07-1.08,.21c-.32,.14-.59,.33-.83,.56-.24,.23-.43,.51-.58,.82-.16,.31-.28,.64-.38,.99s-.17,.7-.21,1.06c-.04,.36-.07,.71-.07,1.04v1.59c0,.34,.04,.69,.09,1.05,.05,.36,.13,.72,.25,1.06,.11,.35,.25,.67,.43,.98,.17,.31,.38,.58,.63,.82,.24,.24,.53,.42,.85,.56,.32,.14,.69,.21,1.1,.22,.23,0,.48,0,.74-.03,.26-.02,.5-.07,.75-.15,.24-.07,.47-.17,.68-.3,.21-.13,.39-.29,.53-.5l.02-3.03h-2.75v-1.45h4.38l.03,4.96Z"/>
    <path class="cls-1" d="M293.53,182.64h-5.64v4.79h6.58v1.46h-8.29v-13.51h8.21v1.47h-6.49v4.34h5.64v1.46Z"/>
    <path class="cls-1" d="M309.2,188.88h-1.74l-5.24-10.09-.03,10.09h-1.74v-13.51h1.74l5.24,10.08,.03-10.08h1.74v13.51Z"/>
    <path class="cls-1" d="M324.48,176.84h-4.17v12.04h-1.67v-12.04h-4.17v-1.47h10.02v1.47Z"/>
    <path class="cls-1" d="M344.61,188.88v-13.51h4.02c.56,0,1.1,.08,1.63,.22,.53,.14,1,.35,1.42,.65,.41,.29,.75,.66,.99,1.11,.25,.45,.37,.99,.36,1.62,0,.35-.06,.67-.17,.96s-.26,.55-.45,.78c-.19,.23-.41,.43-.66,.61s-.52,.32-.81,.45c.36,.11,.69,.25,.99,.45,.3,.19,.56,.43,.78,.71,.22,.28,.38,.59,.5,.93,.12,.35,.18,.72,.18,1.12,0,.63-.11,1.19-.36,1.67s-.58,.89-.99,1.21c-.42,.32-.89,.57-1.43,.75-.54,.17-1.1,.26-1.67,.27h-4.32Zm1.73-7.75h2.39c.32,0,.64-.06,.95-.15s.58-.24,.83-.42c.24-.18,.44-.41,.58-.67,.15-.27,.22-.57,.22-.93,0-.38-.07-.7-.22-.96-.15-.27-.34-.48-.58-.65s-.53-.3-.84-.38c-.32-.08-.65-.12-.98-.13h-2.35v4.3Zm0,1.43v4.86h2.64c.36,0,.7-.07,1.02-.18,.32-.11,.61-.27,.85-.48,.25-.2,.44-.46,.59-.75,.14-.3,.22-.63,.22-1.01,0-.38-.06-.72-.19-1.02s-.32-.55-.55-.76-.51-.37-.83-.48c-.31-.11-.66-.17-1.02-.19h-2.74Z"/>
    <path class="cls-1" d="M366.69,182.64h-5.64v4.79h6.58v1.46h-8.29v-13.51h8.21v1.47h-6.49v4.34h5.64v1.46Z"/>
    <path class="cls-1" d="M380.34,185.39h-4.51l-1.08,3.5h-1.72l4.36-13.51h1.44l4.29,13.51h-1.71l-1.07-3.5Zm-4.04-1.49h3.59l-1.78-5.86-1.81,5.86Z"/>
    <path class="cls-1" d="M397.01,175.38l.02,9.15c-.01,.63-.13,1.22-.34,1.77-.22,.55-.52,1.03-.91,1.44-.39,.41-.85,.74-1.39,.97-.54,.24-1.13,.36-1.77,.36s-1.25-.12-1.79-.35c-.54-.24-1-.56-1.38-.97-.38-.41-.68-.89-.9-1.45-.22-.55-.33-1.15-.33-1.78l.02-9.15h1.63l.04,9.15c0,.4,.07,.79,.19,1.16,.12,.37,.29,.7,.52,.98,.23,.28,.51,.51,.84,.69,.34,.17,.72,.26,1.16,.26s.83-.08,1.16-.25c.33-.17,.61-.4,.84-.69,.23-.29,.4-.62,.52-.99,.12-.37,.18-.76,.19-1.16l.03-9.15h1.66Z"/>
    <path class="cls-1" d="M412.27,176.84h-4.17v12.04h-1.67v-12.04h-4.17v-1.47h10.02v1.47Z"/>
    <path class="cls-1" d="M421.77,182.16l3.08-6.78h1.95l-4.2,8.47-.03,5.04h-1.6l-.03-5.04-4.2-8.47h1.96l3.07,6.78Z"/>
    <path class="cls-1" d="M71.09,206.17h-2.7v5.51h-1.71v-13.51h3.96c.63,.01,1.22,.1,1.78,.27,.56,.17,1.04,.42,1.46,.75,.42,.33,.75,.75,.98,1.26,.24,.5,.36,1.1,.36,1.78,0,.44-.06,.84-.19,1.21-.13,.37-.3,.7-.52,.99s-.49,.56-.8,.79c-.31,.23-.65,.42-1.02,.58l2.87,5.77v.11h-1.82l-2.65-5.51Zm-2.7-1.41h2.3c.38,0,.75-.07,1.08-.18s.64-.28,.9-.5c.26-.22,.46-.48,.61-.79,.15-.31,.22-.67,.22-1.08,0-.43-.07-.81-.21-1.14-.14-.33-.34-.6-.59-.82-.25-.22-.56-.39-.91-.5s-.73-.17-1.15-.18h-2.25v5.18Z"/>
    <path class="cls-1" d="M90.04,205.71c0,.48-.05,.97-.13,1.46-.08,.49-.2,.97-.36,1.42-.16,.46-.37,.88-.62,1.28-.25,.4-.55,.74-.9,1.04s-.74,.53-1.19,.7-.95,.25-1.51,.25-1.06-.08-1.51-.25c-.45-.17-.85-.4-1.19-.7s-.65-.65-.9-1.04c-.25-.4-.46-.83-.63-1.29s-.29-.93-.37-1.42c-.08-.49-.12-.97-.13-1.46v-1.54c0-.48,.05-.97,.12-1.46,.08-.49,.2-.97,.36-1.42,.16-.46,.37-.89,.62-1.28,.25-.4,.55-.75,.9-1.05,.35-.3,.74-.53,1.19-.71,.45-.17,.95-.25,1.51-.25s1.06,.08,1.51,.25c.45,.17,.85,.4,1.2,.7,.35,.3,.64,.65,.89,1.04,.25,.4,.46,.83,.62,1.29,.16,.46,.28,.93,.36,1.43s.12,.98,.13,1.47v1.54Zm-1.7-1.56c0-.32-.03-.66-.07-1.01-.04-.35-.1-.7-.19-1.04-.09-.34-.21-.67-.36-.98-.15-.31-.33-.59-.56-.83s-.49-.43-.79-.57c-.3-.14-.66-.21-1.06-.21s-.75,.07-1.05,.21-.57,.33-.79,.57c-.22,.24-.41,.51-.56,.83s-.27,.64-.36,.98c-.09,.34-.16,.69-.2,1.04s-.06,.68-.07,1v1.56c0,.32,.03,.65,.07,1s.11,.7,.2,1.04c.09,.34,.21,.67,.36,.99,.15,.32,.33,.59,.56,.83s.49,.43,.79,.57c.3,.14,.66,.21,1.06,.21s.76-.07,1.06-.21c.31-.14,.57-.33,.79-.57,.22-.24,.4-.51,.55-.83,.15-.31,.26-.64,.35-.98,.09-.34,.15-.69,.19-1.04,.03-.35,.05-.69,.06-1.01v-1.56Z"/>
    <path class="cls-1" d="M104.67,205.71c0,.48-.05,.97-.13,1.46-.08,.49-.2,.97-.36,1.42-.16,.46-.37,.88-.62,1.28-.25,.4-.55,.74-.9,1.04s-.74,.53-1.19,.7-.95,.25-1.51,.25-1.06-.08-1.51-.25c-.45-.17-.85-.4-1.19-.7s-.65-.65-.9-1.04c-.25-.4-.46-.83-.63-1.29s-.29-.93-.37-1.42c-.08-.49-.12-.97-.13-1.46v-1.54c0-.48,.05-.97,.12-1.46,.08-.49,.2-.97,.36-1.42,.16-.46,.37-.89,.62-1.28,.25-.4,.55-.75,.9-1.05,.35-.3,.74-.53,1.19-.71,.45-.17,.95-.25,1.51-.25s1.06,.08,1.51,.25c.45,.17,.85,.4,1.2,.7,.35,.3,.64,.65,.89,1.04,.25,.4,.46,.83,.62,1.29,.16,.46,.28,.93,.36,1.43s.12,.98,.13,1.47v1.54Zm-1.7-1.56c0-.32-.03-.66-.07-1.01-.04-.35-.1-.7-.19-1.04-.09-.34-.21-.67-.36-.98-.15-.31-.33-.59-.56-.83s-.49-.43-.79-.57c-.3-.14-.66-.21-1.06-.21s-.75,.07-1.05,.21-.57,.33-.79,.57c-.22,.24-.41,.51-.56,.83s-.27,.64-.36,.98c-.09,.34-.16,.69-.2,1.04s-.06,.68-.07,1v1.56c0,.32,.03,.65,.07,1s.11,.7,.2,1.04c.09,.34,.21,.67,.36,.99,.15,.32,.33,.59,.56,.83s.49,.43,.79,.57c.3,.14,.66,.21,1.06,.21s.76-.07,1.06-.21c.31-.14,.57-.33,.79-.57,.22-.24,.4-.51,.55-.83,.15-.31,.26-.64,.35-.98,.09-.34,.15-.69,.19-1.04,.03-.35,.05-.69,.06-1.01v-1.56Z"/>
    <path class="cls-1" d="M119.63,199.64h-4.17v12.04h-1.67v-12.04h-4.17v-1.47h10.02v1.47Z"/>
    <path class="cls-1" d="M132.58,205.44h-5.64v4.79h6.58v1.46h-8.29v-13.51h8.21v1.47h-6.49v4.34h5.64v1.46Z"/>
    <path class="cls-1" d="M139.6,211.68v-13.51h3.13c.94,.01,1.78,.17,2.52,.48,.74,.31,1.36,.73,1.87,1.28,.51,.55,.9,1.2,1.17,1.97,.27,.76,.41,1.61,.41,2.54v.99c0,.93-.14,1.77-.41,2.54-.27,.76-.66,1.42-1.17,1.97-.51,.55-1.13,.97-1.87,1.28-.74,.31-1.58,.46-2.52,.47h-3.13Zm1.74-12.1v10.7h1.38c.73,0,1.36-.13,1.89-.39,.53-.25,.97-.59,1.32-1.02,.35-.43,.61-.94,.78-1.53,.17-.59,.26-1.22,.26-1.91v-1.01c0-.69-.1-1.32-.27-1.91-.17-.58-.43-1.09-.78-1.52-.35-.43-.79-.77-1.32-1.02s-1.16-.38-1.89-.39h-1.38Z"/>
    <path class="cls-1" d="M169.05,198.18h8.16v1.49h-3.24v10.53h3.24v1.48h-8.16v-1.48h3.16v-10.53h-3.16v-1.49Z"/>
    <path class="cls-1" d="M192.14,211.68h-1.74l-5.24-10.09-.03,10.09h-1.74v-13.51h1.74l5.24,10.08,.03-10.08h1.74v13.51Z"/>
    <path class="cls-1" d="M220.01,208.27c0-.41-.09-.76-.28-1.05-.19-.28-.43-.52-.73-.72-.3-.19-.62-.36-.98-.49-.36-.13-.7-.25-1.03-.35-.48-.15-.96-.34-1.45-.56-.49-.22-.94-.48-1.35-.8-.41-.32-.74-.69-.99-1.12-.26-.43-.38-.94-.38-1.52s.13-1.1,.38-1.56c.26-.46,.59-.84,1.01-1.16,.42-.32,.88-.55,1.41-.72,.53-.16,1.05-.25,1.59-.25,.59,0,1.15,.1,1.7,.29,.54,.2,1.03,.47,1.45,.82,.42,.35,.76,.78,1.01,1.28s.39,1.06,.4,1.68h-1.76c-.05-.39-.14-.74-.29-1.06s-.33-.59-.57-.82c-.23-.23-.51-.41-.84-.53-.33-.13-.69-.19-1.1-.19-.33,0-.65,.05-.96,.14-.31,.09-.59,.23-.83,.42-.25,.19-.44,.41-.58,.69s-.22,.59-.22,.95c0,.39,.11,.72,.3,.99,.19,.27,.43,.5,.73,.68,.29,.19,.61,.34,.96,.46,.34,.12,.67,.23,.97,.32,.33,.11,.67,.22,1.01,.36,.34,.13,.67,.29,.98,.46,.32,.17,.61,.37,.88,.58s.51,.46,.71,.74c.21,.28,.36,.58,.48,.91,.11,.33,.17,.7,.17,1.1,0,.61-.13,1.13-.4,1.59-.27,.45-.62,.83-1.04,1.13-.43,.3-.91,.53-1.45,.68-.54,.15-1.08,.23-1.62,.23-.6,0-1.19-.09-1.76-.28-.58-.19-1.09-.45-1.54-.8-.46-.35-.82-.78-1.11-1.28-.28-.5-.44-1.08-.45-1.72h1.75c.06,.42,.17,.79,.34,1.12,.17,.32,.4,.6,.67,.83,.27,.23,.59,.4,.94,.51s.74,.17,1.16,.17c.33,0,.66-.04,.99-.12,.33-.08,.61-.21,.87-.39,.25-.18,.46-.4,.62-.67,.16-.27,.24-.59,.24-.96Z"/>
    <path class="cls-1" d="M236.32,207.62c-.08,.62-.24,1.2-.48,1.72-.24,.52-.56,.97-.94,1.35s-.84,.67-1.37,.87c-.53,.21-1.12,.31-1.77,.31-.56,0-1.06-.08-1.52-.24-.45-.16-.86-.38-1.21-.65-.36-.28-.66-.61-.92-.98s-.47-.79-.64-1.23c-.17-.45-.3-.91-.38-1.4-.08-.49-.13-.98-.13-1.48v-1.88c0-.5,.05-1,.13-1.48,.08-.49,.21-.96,.38-1.4,.17-.45,.38-.86,.64-1.24,.26-.38,.56-.71,.92-.99,.36-.28,.76-.5,1.21-.65,.45-.16,.96-.24,1.52-.24,.67,0,1.28,.1,1.81,.31,.53,.21,.99,.5,1.37,.88,.38,.38,.69,.84,.92,1.37,.23,.53,.39,1.12,.46,1.76h-1.72c-.06-.41-.15-.79-.29-1.14-.14-.35-.32-.66-.55-.93-.23-.27-.51-.47-.84-.63-.33-.15-.72-.23-1.17-.23-.41,0-.77,.07-1.08,.2-.31,.13-.58,.31-.81,.54-.23,.23-.41,.5-.57,.8-.15,.3-.27,.62-.37,.96-.09,.34-.16,.69-.2,1.04-.04,.36-.06,.7-.06,1.04v1.9c0,.33,.02,.68,.06,1.03,.04,.36,.11,.71,.2,1.05,.09,.34,.21,.67,.36,.97,.15,.3,.34,.57,.57,.8,.23,.23,.5,.42,.81,.55s.67,.2,1.09,.2c.45,0,.84-.07,1.17-.21,.33-.14,.61-.34,.84-.6s.41-.56,.55-.91c.14-.35,.23-.73,.29-1.14h1.72Z"/>
    <path class="cls-1" d="M242.21,198.18h8.16v1.49h-3.24v10.53h3.24v1.48h-8.16v-1.48h3.16v-10.53h-3.16v-1.49Z"/>
    <path class="cls-1" d="M264.27,205.44h-5.64v4.79h6.58v1.46h-8.29v-13.51h8.21v1.47h-6.49v4.34h5.64v1.46Z"/>
    <path class="cls-1" d="M279.93,211.68h-1.74l-5.24-10.09-.03,10.09h-1.74v-13.51h1.74l5.24,10.08,.03-10.08h1.74v13.51Z"/>
    <path class="cls-1" d="M294.85,207.62c-.08,.62-.24,1.2-.48,1.72-.24,.52-.56,.97-.94,1.35s-.84,.67-1.37,.87c-.53,.21-1.12,.31-1.77,.31-.56,0-1.06-.08-1.52-.24-.45-.16-.86-.38-1.21-.65-.36-.28-.66-.61-.92-.98s-.47-.79-.64-1.23c-.17-.45-.3-.91-.38-1.4-.08-.49-.13-.98-.13-1.48v-1.88c0-.5,.05-1,.13-1.48,.08-.49,.21-.96,.38-1.4,.17-.45,.38-.86,.64-1.24,.26-.38,.56-.71,.92-.99,.36-.28,.76-.5,1.21-.65,.45-.16,.96-.24,1.52-.24,.67,0,1.28,.1,1.81,.31,.53,.21,.99,.5,1.37,.88,.38,.38,.69,.84,.92,1.37,.23,.53,.39,1.12,.46,1.76h-1.72c-.06-.41-.15-.79-.29-1.14-.14-.35-.32-.66-.55-.93-.23-.27-.51-.47-.84-.63-.33-.15-.72-.23-1.17-.23-.41,0-.77,.07-1.08,.2-.31,.13-.58,.31-.81,.54-.23,.23-.41,.5-.57,.8-.15,.3-.27,.62-.37,.96-.09,.34-.16,.69-.2,1.04-.04,.36-.06,.7-.06,1.04v1.9c0,.33,.02,.68,.06,1.03,.04,.36,.11,.71,.2,1.05,.09,.34,.21,.67,.36,.97,.15,.3,.34,.57,.57,.8,.23,.23,.5,.42,.81,.55s.67,.2,1.09,.2c.45,0,.84-.07,1.17-.21,.33-.14,.61-.34,.84-.6s.41-.56,.55-.91c.14-.35,.23-.73,.29-1.14h1.72Z"/>
    <path class="cls-1" d="M308.17,205.44h-5.64v4.79h6.58v1.46h-8.29v-13.51h8.21v1.47h-6.49v4.34h5.64v1.46Z"/>
    <path class="cls-1" d="M318.36,210.57c0-.19,.03-.36,.09-.52s.14-.3,.26-.42c.11-.12,.25-.21,.42-.28s.36-.1,.58-.1,.42,.03,.59,.1c.17,.07,.31,.16,.43,.28,.11,.12,.2,.26,.26,.42,.06,.16,.09,.33,.09,.52s-.03,.35-.09,.51c-.06,.16-.15,.29-.26,.41-.12,.12-.26,.21-.43,.27-.17,.06-.37,.1-.59,.1s-.42-.03-.58-.1c-.17-.07-.31-.16-.42-.27-.11-.12-.2-.25-.26-.41-.06-.16-.09-.33-.09-.51Z"/>
    <path class="cls-1" d="M338.74,209.91c-.57,.67-1.22,1.16-1.96,1.48-.74,.32-1.54,.48-2.42,.47-.56,0-1.07-.09-1.54-.25-.47-.16-.89-.39-1.26-.68-.37-.29-.7-.63-.97-1.02s-.51-.81-.7-1.27c-.19-.45-.33-.93-.43-1.43-.1-.5-.15-1-.15-1.51v-1.57c0-.5,.05-1,.13-1.5,.08-.5,.21-.98,.38-1.43s.39-.88,.65-1.28,.57-.73,.93-1.02c.36-.29,.77-.51,1.23-.68,.46-.17,.97-.25,1.54-.25,.63,0,1.21,.1,1.74,.29,.53,.2,1,.47,1.39,.83,.4,.36,.71,.8,.96,1.31,.24,.51,.39,1.08,.45,1.71h-1.7c-.07-.39-.17-.75-.31-1.08-.14-.33-.33-.61-.56-.85-.23-.23-.51-.42-.83-.55-.32-.13-.7-.2-1.12-.2s-.77,.07-1.08,.21c-.32,.14-.59,.33-.83,.56-.24,.23-.43,.51-.58,.82-.16,.31-.28,.64-.38,.99s-.17,.7-.21,1.06c-.04,.36-.07,.71-.07,1.04v1.59c0,.34,.04,.69,.09,1.05,.05,.36,.13,.72,.25,1.06,.11,.35,.25,.67,.43,.98,.17,.31,.38,.58,.63,.82,.24,.24,.53,.42,.85,.56,.32,.14,.69,.21,1.1,.22,.23,0,.48,0,.74-.03,.26-.02,.5-.07,.75-.15,.24-.07,.47-.17,.68-.3,.21-.13,.39-.29,.53-.5l.02-3.03h-2.75v-1.45h4.38l.03,4.96Z"/>
    <path class="cls-1" d="M353.11,198.18l.02,9.15c-.01,.63-.13,1.22-.34,1.77-.22,.55-.52,1.03-.91,1.44-.39,.41-.85,.74-1.39,.97-.54,.24-1.13,.36-1.77,.36s-1.25-.12-1.79-.35c-.54-.24-1-.56-1.38-.97-.38-.41-.68-.89-.9-1.45-.22-.55-.33-1.15-.33-1.78l.02-9.15h1.63l.04,9.15c0,.4,.07,.79,.19,1.16,.12,.37,.29,.7,.52,.98,.23,.28,.51,.51,.84,.69,.34,.17,.72,.26,1.16,.26s.83-.08,1.16-.25c.33-.17,.61-.4,.84-.69,.23-.29,.4-.62,.52-.99,.12-.37,.18-.76,.19-1.16l.03-9.15h1.66Z"/>
    <path class="cls-1" d="M359.27,198.18h8.16v1.49h-3.24v10.53h3.24v1.48h-8.16v-1.48h3.16v-10.53h-3.16v-1.49Z"/>
    <path class="cls-1" d="M373.72,211.68v-13.51h3.13c.94,.01,1.78,.17,2.52,.48,.74,.31,1.36,.73,1.87,1.28,.51,.55,.9,1.2,1.17,1.97,.27,.76,.41,1.61,.41,2.54v.99c0,.93-.14,1.77-.41,2.54-.27,.76-.66,1.42-1.17,1.97-.51,.55-1.13,.97-1.87,1.28-.74,.31-1.58,.46-2.52,.47h-3.13Zm1.74-12.1v10.7h1.38c.73,0,1.36-.13,1.89-.39,.53-.25,.97-.59,1.32-1.02,.35-.43,.61-.94,.78-1.53,.17-.59,.26-1.22,.26-1.91v-1.01c0-.69-.1-1.32-.27-1.91-.17-.58-.43-1.09-.78-1.52-.35-.43-.79-.77-1.32-1.02s-1.16-.38-1.89-.39h-1.38Z"/>
    <path class="cls-1" d="M395.96,205.44h-5.64v4.79h6.58v1.46h-8.29v-13.51h8.21v1.47h-6.49v4.34h5.64v1.46Z"/>
    <path class="cls-1" d="M402.99,211.68v-13.51h3.13c.94,.01,1.78,.17,2.52,.48,.74,.31,1.36,.73,1.87,1.28,.51,.55,.9,1.2,1.17,1.97,.27,.76,.41,1.61,.41,2.54v.99c0,.93-.14,1.77-.41,2.54-.27,.76-.66,1.42-1.17,1.97-.51,.55-1.13,.97-1.87,1.28-.74,.31-1.58,.46-2.52,.47h-3.13Zm1.74-12.1v10.7h1.38c.73,0,1.36-.13,1.89-.39,.53-.25,.97-.59,1.32-1.02,.35-.43,.61-.94,.78-1.53,.17-.59,.26-1.22,.26-1.91v-1.01c0-.69-.1-1.32-.27-1.91-.17-.58-.43-1.09-.78-1.52-.35-.43-.79-.77-1.32-1.02s-1.16-.38-1.89-.39h-1.38Z"/>
    <path class="cls-1" d="M432.41,211.68v-13.51h4.02c.56,0,1.1,.08,1.63,.22,.53,.14,1,.35,1.42,.65,.41,.29,.75,.66,.99,1.11,.25,.45,.37,.99,.36,1.62,0,.35-.06,.67-.17,.96s-.26,.55-.45,.78c-.19,.23-.41,.43-.66,.61s-.52,.32-.81,.45c.36,.11,.69,.25,.99,.45,.3,.19,.56,.43,.78,.71,.22,.28,.38,.59,.5,.93,.12,.35,.18,.72,.18,1.12,0,.63-.11,1.19-.36,1.67s-.58,.89-.99,1.21c-.42,.32-.89,.57-1.43,.75-.54,.17-1.1,.26-1.67,.27h-4.32Zm1.73-7.75h2.39c.32,0,.64-.06,.95-.15s.58-.24,.83-.42c.24-.18,.44-.41,.58-.67,.15-.27,.22-.57,.22-.93,0-.38-.07-.7-.22-.96-.15-.27-.34-.48-.58-.65s-.53-.3-.84-.38c-.32-.08-.65-.12-.98-.13h-2.35v4.3Zm0,1.43v4.86h2.64c.36,0,.7-.07,1.02-.18,.32-.11,.61-.27,.85-.48,.25-.2,.44-.46,.59-.75,.14-.3,.22-.63,.22-1.01,0-.38-.06-.72-.19-1.02s-.32-.55-.55-.76-.51-.37-.83-.48c-.31-.11-.66-.17-1.02-.19h-2.74Z"/>
    <path class="cls-1" d="M451.04,204.96l3.08-6.78h1.95l-4.2,8.47-.03,5.04h-1.6l-.03-5.04-4.2-8.47h1.96l3.07,6.78Z"/>
    <path class="cls-1" d="M485.07,207.62c-.08,.62-.24,1.2-.48,1.72-.24,.52-.56,.97-.94,1.35s-.84,.67-1.37,.87c-.53,.21-1.12,.31-1.77,.31-.56,0-1.06-.08-1.52-.24-.45-.16-.86-.38-1.21-.65-.36-.28-.66-.61-.92-.98s-.47-.79-.64-1.23c-.17-.45-.3-.91-.38-1.4-.08-.49-.13-.98-.13-1.48v-1.88c0-.5,.05-1,.13-1.48,.08-.49,.21-.96,.38-1.4,.17-.45,.38-.86,.64-1.24,.26-.38,.56-.71,.92-.99,.36-.28,.76-.5,1.21-.65,.45-.16,.96-.24,1.52-.24,.67,0,1.28,.1,1.81,.31,.53,.21,.99,.5,1.37,.88,.38,.38,.69,.84,.92,1.37,.23,.53,.39,1.12,.46,1.76h-1.72c-.06-.41-.15-.79-.29-1.14-.14-.35-.32-.66-.55-.93-.23-.27-.51-.47-.84-.63-.33-.15-.72-.23-1.17-.23-.41,0-.77,.07-1.08,.2-.31,.13-.58,.31-.81,.54-.23,.23-.41,.5-.57,.8-.15,.3-.27,.62-.37,.96-.09,.34-.16,.69-.2,1.04-.04,.36-.06,.7-.06,1.04v1.9c0,.33,.02,.68,.06,1.03,.04,.36,.11,.71,.2,1.05,.09,.34,.21,.67,.36,.97,.15,.3,.34,.57,.57,.8,.23,.23,.5,.42,.81,.55s.67,.2,1.09,.2c.45,0,.84-.07,1.17-.21,.33-.14,.61-.34,.84-.6s.41-.56,.55-.91c.14-.35,.23-.73,.29-1.14h1.72Z"/>
    <path class="cls-1" d="M497.41,208.19h-4.51l-1.08,3.5h-1.72l4.36-13.51h1.44l4.29,13.51h-1.71l-1.07-3.5Zm-4.04-1.49h3.59l-1.78-5.86-1.81,5.86Z"/>
    <path class="cls-1" d="M510.06,206.17h-2.7v5.51h-1.71v-13.51h3.96c.63,.01,1.22,.1,1.78,.27,.56,.17,1.04,.42,1.46,.75,.42,.33,.75,.75,.98,1.26,.24,.5,.36,1.1,.36,1.78,0,.44-.06,.84-.19,1.21-.13,.37-.3,.7-.52,.99s-.49,.56-.8,.79c-.31,.23-.65,.42-1.02,.58l2.87,5.77v.11h-1.82l-2.65-5.51Zm-2.7-1.41h2.3c.38,0,.75-.07,1.08-.18s.64-.28,.9-.5c.26-.22,.46-.48,.61-.79,.15-.31,.22-.67,.22-1.08,0-.43-.07-.81-.21-1.14-.14-.33-.34-.6-.59-.82-.25-.22-.56-.39-.91-.5s-.73-.17-1.15-.18h-2.25v5.18Z"/>
    <path class="cls-1" d="M527.65,205.44h-5.64v4.79h6.58v1.46h-8.29v-13.51h8.21v1.47h-6.49v4.34h5.64v1.46Z"/>
  </g>
  <g>
    <path class="cls-1" d="M221.18,58.67l-26.01,29.44-.13-19.67,12.01-13.07h28.39v92.41h-14.26V58.67Z"/>
    <path class="cls-1" d="M379.44,55.41c.65,29.97-13.69,59.58-13.88,89.56-9.81-30.05-5.27-59.79-15.2-89.56-4.77,.03-23.7-.02-28.37,.01-.1,29.71-14.93,59.41-15.88,89.12-9.06-29.77-3.9-59.66-13.08-89.16-9.18,.06-18.35,0-27.54,.06-.87,30.32-17.27,61.91-18.15,92.21,4.86,.03,9.7-.03,14.56,0,.66-29.29,15.78-59.38,17.46-88.68,7.78,29.24,2.56,59.17,12.06,88.66,9.76,.07,19.43-.06,29.18,0-.08-30.32,15.16-61.01,15.4-91.33,9.48,30.26,4.33,60.81,14.88,91.35,9.76,.07,19.49-.01,29.25,.06-.87-30.93,14.03-61.42,13.17-92.33-4.68,.03-9.2,0-13.88,.02Z"/>
  </g>
  
</svg>