<?xml version="1.0" encoding="UTF-8"?>
<svg id="Layer_1" data-name="Layer 1" xmlns="http://www.w3.org/2000/svg" viewBox="0 0 595.28 255.12">
  <defs>
    <style>
      

      .cls-1 {
        fill: #fff;
      }
    </style>
  </defs>
  <g>
    <path class="cls-1" d="M221.18,84.65l-26.01,29.44-.13-19.67,12.01-13.07h28.39v92.41h-14.26V84.65Z"/>
    <path class="cls-1" d="M379.44,81.39c.65,29.97-13.69,59.58-13.88,89.56-9.81-30.05-5.27-59.79-15.2-89.56-4.77,.03-23.7-.02-28.37,.01-.1,29.71-14.93,59.41-15.88,89.12-9.06-29.77-3.9-59.66-13.08-89.16-9.18,.06-18.35,0-27.54,.06-.87,30.32-17.27,61.91-18.15,92.21,4.86,.03,9.7-.03,14.56,0,.66-29.29,15.78-59.38,17.46-88.68,7.78,29.24,2.56,59.17,12.06,88.66,9.76,.07,19.43-.06,29.18,0-.08-30.32,15.16-61.01,15.4-91.33,9.48,30.26,4.33,60.81,14.88,91.35,9.76,.07,19.49-.01,29.25,.06-.87-30.93,14.03-61.42,13.17-92.33-4.68,.03-9.2,0-13.88,.02Z"/>
  </g>
  
</svg>